<?xml version="1.0" encoding="UTF-8" standalone="no"?>
<!-- Created with Inkscape (http://www.inkscape.org/) -->

<svg
   width="397px"
   height="561px"
   viewBox="0 0 210 297"
   version="1.1"
   id="svg1"
   xml:space="preserve"
   sodipodi:docname="plantv2.svg"
   inkscape:version="1.3 (0e150ed6c4, 2023-07-21)"
   xmlns:inkscape="http://www.inkscape.org/namespaces/inkscape"
   xmlns:sodipodi="http://sodipodi.sourceforge.net/DTD/sodipodi-0.dtd"
   xmlns="http://www.w3.org/2000/svg"
   xmlns:svg="http://www.w3.org/2000/svg"><sodipodi:namedview
     id="namedview1"
     pagecolor="#ffffff"
     bordercolor="#000000"
     borderopacity="0.25"
     inkscape:showpageshadow="2"
     inkscape:pageopacity="0.0"
     inkscape:pagecheckerboard="0"
     inkscape:deskcolor="#d1d1d1"
     inkscape:document-units="mm"
     inkscape:zoom="1.3166807"
     inkscape:cx="208.85854"
     inkscape:cy="290.50324"
     inkscape:window-width="1194"
     inkscape:window-height="952"
     inkscape:window-x="0"
     inkscape:window-y="0"
     inkscape:window-maximized="0"
     inkscape:current-layer="g6" /><defs
     id="defs1" /><g
     inkscape:label="Warstwa 1"
     inkscape:groupmode="layer"
     id="layer1"><g
       id="g6"
       transform="matrix(0,2.4063775,2.4063775,0,-419.37321,-121.21178)"><path
         style="fill:none;stroke:#524d25;stroke-width:1.5;stroke-linecap:round;stroke-linejoin:round;stroke-dasharray:none;stroke-opacity:1"
         d="m 65.508794,215.61637 c 0,0 5.22463,13.26252 11.654941,13.66441 5.224628,0.60284 27.831195,-27.32882 37.376185,-30.54398 6.73173,-1.2654 11.33709,-2.53391 41.59607,25.31936"
         id="path3"
         sodipodi:nodetypes="cccc" /><rect
         style="fill:#6e211b;fill-opacity:0.94;stroke:#531a15;stroke-width:1.195;stroke-linecap:round;stroke-linejoin:round;stroke-dasharray:none;stroke-opacity:0.80000001"
         id="rect1"
         width="62.41692"
         height="54.077595"
         x="102.40807"
         y="192.24484"
         ry="7.4195242" /><path
         style="fill:#6c5e2d;fill-opacity:1;stroke:#524d25;stroke-width:1.5;stroke-linecap:round;stroke-linejoin:round;stroke-dasharray:none;stroke-opacity:1"
         d="m 79.976995,181.65629 c 0,0 -15.774357,17.88431 -17.683356,20.49662 -3.61705,3.68403 -4.970547,7.95013 -4.822732,15.87483 2.009472,4.62179 7.384811,4.57155 8.640731,4.42084 3.114682,-0.35166 13.664409,-8.49002 14.267251,-10.04736 1.10521,-1.35639 8.238835,-13.26252 8.037888,-15.07105 0,0 0.653081,-6.38007 -0.150708,-7.43505 -0.502368,-1.45686 -8.289074,-8.23883 -8.289074,-8.23883 z"
         id="path4"
         sodipodi:nodetypes="cccccccc" /><path
         style="fill:#6c5e2d;fill-opacity:1;stroke:#524d25;stroke-width:1.5;stroke-linecap:round;stroke-linejoin:round;stroke-dasharray:none;stroke-opacity:1"
         d="m 87.386054,252.06969 c 0,0 -5.079758,-17.58377 -6.394101,-20.46112 -0.994638,-2.09584 -5.648124,-5.2929 -7.388741,-5.39947 -2.095844,-0.28418 -5.825735,2.30899 -6.3941,4.40483 -0.745979,1.66957 -0.390752,6.46514 -0.142092,9.5201 0.106568,1.88271 1.953753,6.28753 4.262734,9.94638 1.385389,1.63405 3.729892,4.1917 7.104557,5.25738 1.669571,0.42627 8.951743,-3.2681 8.951743,-3.2681 z"
         id="path5"
         sodipodi:nodetypes="cccccccc" /><rect
         style="fill:#531a15;fill-opacity:0.9199999;stroke:#531a15;stroke-width:1.5;stroke-linecap:round;stroke-linejoin:round;stroke-dasharray:none;stroke-opacity:0.89803922"
         id="rect2"
         width="4.2198915"
         height="58.07375"
         x="101.84009"
         y="190.09607"
         ry="0.50236177" /><path
         style="fill:#aaa45a;fill-opacity:0.81176472;stroke:#524d25;stroke-width:0.993655;stroke-linecap:round;stroke-linejoin:round;stroke-opacity:0.89803922"
         d="m 83.03707,189.7784 2.422799,4.51142 -2.422799,8.60511 -2.172164,3.09116 z"
         id="path1" /><path
         style="fill:#aaa45a;fill-opacity:0.811765;stroke:#524d25;stroke-width:0.993655;stroke-linecap:round;stroke-linejoin:round;stroke-opacity:0.898039"
         d="m 78.882114,186.52015 0.751902,5.5975 2.506346,-4.59496 -1.587353,-2.75698 z"
         id="path2" /><path
         style="fill:#aaa45a;fill-opacity:0.811765;stroke:#524d25;stroke-width:0.993655;stroke-linecap:round;stroke-linejoin:round;stroke-opacity:0.898039"
         d="m 70.923076,230.04699 8.187389,4.34433 -2.005075,-4.51142 -3.174701,-1.33672 -2.172165,1.33672 z"
         id="path6" /><path
         style="fill:#aaa45a;fill-opacity:0.811765;stroke:#524d25;stroke-width:0.993655;stroke-linecap:round;stroke-linejoin:round;stroke-opacity:0.898039"
         d="m 78.517122,235.94221 2.681642,2.99098 -0.475408,-2.92481 z"
         id="path7" /><path
         style="fill:#a3433c;fill-opacity:0.74;stroke:#531a15;stroke-width:0.778125;stroke-linecap:round;stroke-linejoin:round;stroke-opacity:0.898039"
         d="m 109.24744,194.51623 -0.3357,6.73203 42.63419,-3.36601 4.86768,-2.85601 z"
         id="path8" /></g></g></svg>
